<svg width="143" height="143" viewBox="0 0 143 143" fill="none" xmlns="http://www.w3.org/2000/svg">
<g clip-path="url(#clip0_627_11349)">
<rect width="143" height="143" rx="5" fill="white"/>
<rect x="-79" y="-11" width="365" height="266" fill="#304CCF"/>
<path d="M44.0516 44.5304C45.2298 42.4841 47.09 40.8099 49.1983 39.8177C50.4385 39.1977 51.8647 39.0116 53.2909 39.0116C53.725 39.0116 54.097 39.0116 54.5311 39.0116C55.8953 38.9496 57.1975 39.1356 58.4997 39.5697C58.9337 39.7557 59.3678 39.9418 59.8019 40.1898C61.6001 41.1819 63.1503 42.7322 64.2045 44.5304C66.4988 48.437 68.6691 52.4056 71.0875 56.3121C73.5058 52.4056 75.6761 48.313 78.0945 44.3444C78.5286 43.4763 79.0866 42.7322 79.7687 42.1121C81.629 40.2518 84.2334 39.2597 86.8378 39.1356C87.2718 39.1356 87.7059 39.0736 88.1399 39.0736C90.1242 39.0116 92.1085 39.3837 93.8448 40.3758C94.4028 40.6859 94.9609 41.0579 95.395 41.492C97.5033 43.2282 98.6194 45.7086 99.9836 48.0029C106.681 59.5986 113.316 71.1322 120.013 82.7279C120.881 84.2781 121.935 85.8284 122.493 87.5646C123.609 91.0991 122.927 95.1917 120.633 98.1681C119.082 100.276 116.788 101.641 114.37 102.571H101.1C99.1775 102.571 97.5653 101.145 97.2552 99.2223V99.1603C96.9452 96.8039 98.7435 94.7576 101.1 94.7576C104.572 94.7576 108.045 94.7576 111.517 94.7576C114.122 94.7576 115.92 91.4092 114.37 89.3009C106.557 75.8449 98.8055 62.327 90.9923 48.871C90.0622 47.0108 87.5198 46.3287 85.7836 47.4448C84.5434 48.375 83.9233 49.8632 83.1172 51.2274C81.0089 55.1339 78.6526 59.2885 76.2342 63.3811C75.8622 63.9392 75.6761 64.6213 76.1102 65.1794C79.9548 71.7523 83.7373 78.3873 87.5819 84.9602C89.1321 87.6266 89.8142 90.9131 88.884 93.9515C87.8919 98.2301 84.2954 101.703 79.9548 102.509H62.1582C58.9957 101.951 56.2053 99.9044 54.5931 97.176C53.601 95.5017 53.0429 93.6415 52.8569 91.7192C52.6708 89.3009 53.477 86.8825 54.6551 84.7742C57.9416 79.0694 61.2281 73.4266 64.5145 67.7218C65.1346 66.6676 65.8167 65.6755 66.3128 64.4973C66.2508 63.9392 65.8787 63.4431 65.6307 62.9471C62.7783 58.1724 60.1119 53.2737 57.1975 48.499C56.1433 46.5147 53.1669 46.2047 51.6167 47.8169C50.5625 48.9951 49.9424 50.4833 49.1363 51.7855C42.3153 63.5672 35.5564 75.3489 28.7354 87.0685C28.0533 88.3707 27.0612 89.5489 26.9371 91.0991C26.9991 92.5873 27.9913 94.0755 29.4175 94.5716C30.4096 94.8196 31.4018 94.7576 32.3939 94.7576C35.2463 94.6956 38.0367 94.7576 40.8891 94.7576C43.2455 94.7576 45.0437 96.8039 44.6717 99.0983V99.2223C44.4237 101.083 42.8114 102.509 40.8891 102.509H27.6192C25.2629 101.641 23.0306 100.338 21.4804 98.2921C19.9921 96.3699 19.186 94.0135 19 91.5952V90.8511C19.124 88.9908 19.4961 87.0685 20.4262 85.4563C28.3013 71.8143 36.1765 58.1724 44.0516 44.5304ZM70.8395 72.7445C67.615 78.2633 64.4525 83.8441 61.2281 89.3629C60.2359 90.9751 60.98 93.2694 62.5303 94.1996C63.4604 94.8196 64.5765 94.6956 65.6307 94.6956C69.6613 94.6336 73.6919 94.6956 77.7224 94.6956C80.2648 94.7576 82.1251 91.5952 80.7609 89.3629C77.5984 83.8441 74.374 78.2633 71.1495 72.7445C71.0875 72.7445 71.0255 72.7445 70.8395 72.7445Z" fill="white"/>
</g>
<rect x="1" y="1" width="141" height="141" rx="4" stroke="white" stroke-width="2"/>
<defs>
<clipPath id="clip0_627_11349">
<rect width="143" height="143" rx="5" fill="white"/>
</clipPath>
</defs>
</svg>
