<svg width="25" height="19" viewBox="0 0 25 19" fill="none" xmlns="http://www.w3.org/2000/svg">
<path d="M22.2222 0H2.77778C2.04107 0 1.33453 0.307966 0.813592 0.856149C0.292658 1.40433 0 2.14783 0 2.92308L0 16.0769C0 16.8522 0.292658 17.5957 0.813592 18.1438C1.33453 18.692 2.04107 19 2.77778 19H22.2222C22.9589 19 23.6655 18.692 24.1864 18.1438C24.7073 17.5957 25 16.8522 25 16.0769V2.92308C25 2.14783 24.7073 1.40433 24.1864 0.856149C23.6655 0.307966 22.9589 0 22.2222 0V0Z" fill="#DA251D"/>
<path d="M13.7985 7.82001L12.5 4L11.2015 7.82001H7L10.3993 10.18L9.10074 14L12.5 11.6393L15.8993 14L14.6007 10.18L18 7.82001H13.7985Z" fill="#FFFF00"/>
</svg>
