<svg width="26" height="19" viewBox="0 0 26 19" fill="none" xmlns="http://www.w3.org/2000/svg">
<path d="M0 2.9315V5.77778H4.06467L0 2.9315ZM3.36844 18.7778H9.38889V14.5622L3.36844 18.7778ZM16.6111 14.5629V18.7778H22.6308L16.6111 14.5629ZM0 13V15.8463L4.06611 13H0ZM22.6323 0H16.6111V4.21561L22.6323 0ZM26 15.847V13H21.9332L26 15.847ZM26 5.77778V2.9315L21.9346 5.77778H26ZM9.38889 0H3.36844L9.38889 4.21561V0Z" fill="#00247D"/>
<path d="M18.1566 13L25.1708 17.9118C25.5133 17.5589 25.7595 17.1239 25.8858 16.6486L20.675 13H18.1566ZM9.38878 13H7.8425L0.829004 17.9111C1.20528 18.2938 1.68773 18.5676 2.22867 18.6947L9.38878 13.681V13ZM16.611 5.77773H18.1573L25.1708 0.866619C24.788 0.478262 24.3029 0.206527 23.7718 0.0830078L16.611 5.09668V5.77773ZM7.8425 5.77773L0.829004 0.866619C0.486636 1.21977 0.240258 1.6546 0.113281 2.12979L5.32412 5.77773H7.8425Z" fill="#CF1B2B"/>
<path d="M26 11.5556H15.1667V18.7778H16.6111V14.5629L22.6308 18.7778H23.1111C23.4948 18.7778 23.8746 18.7013 24.2283 18.5526C24.582 18.4039 24.9025 18.186 25.1709 17.9118L18.1567 13H20.6751L25.8859 16.6487C25.9531 16.4053 26 16.1532 26 15.8889V15.847L21.9332 13H26V11.5556ZM0 11.5556V13H4.06611L0 15.8463V15.8889C0 16.6768 0.317056 17.3897 0.829111 17.9111L7.84261 13H9.38889V13.6811L2.22878 18.694C2.44111 18.7446 2.66067 18.7778 2.88889 18.7778H3.36844L9.38889 14.5622V18.7778H10.8333V11.5556H0ZM26 2.88889C26.0004 2.13199 25.7025 1.40541 25.1709 0.866667L18.1574 5.77778H16.6111V5.09672L23.7719 0.0830557C23.5556 0.029992 23.3339 0.00212193 23.1111 2.73273e-07H22.6323L16.6111 4.21561V2.73273e-07H15.1667V7.22222H26V5.77778H21.9346L26 2.9315V2.88889ZM9.38889 2.73273e-07V4.21561L3.36844 2.73273e-07H2.88889C2.50512 -0.000166958 2.12519 0.0764208 1.77145 0.225258C1.41771 0.374095 1.09732 0.592174 0.829111 0.866667L7.84261 5.77778H5.32422L0.113389 2.12983C0.0417301 2.37662 0.00359191 2.63193 0 2.88889L0 2.9315L4.06467 5.77778H0V7.22222H10.8333V2.73273e-07H9.38889Z" fill="#EEEEEE"/>
<path d="M15.1667 7.22222V0H10.8333V7.22222H0V11.5556H10.8333V18.7778H15.1667V11.5556H26V7.22222H15.1667Z" fill="#CF1B2B"/>
</svg>
