<svg width="449" height="64" viewBox="0 0 449 64" fill="none" xmlns="http://www.w3.org/2000/svg">
<path d="M25.9901 5.74526C27.1682 3.69897 29.0285 2.02473 31.1368 1.03259C32.377 0.412497 33.8032 0.22647 35.2294 0.22647C35.6635 0.22647 36.0355 0.22647 36.4696 0.22647C37.8338 0.164462 39.136 0.350488 40.4382 0.784551C40.8722 0.970577 41.3063 1.1566 41.7403 1.40464C43.5386 2.39678 45.0888 3.94701 46.143 5.74526C48.4373 9.65182 50.6076 13.6204 53.026 17.527C55.4443 13.6204 57.6146 9.52781 60.033 5.55924C60.467 4.69111 61.0251 3.94701 61.7072 3.32692C63.5675 1.46665 66.1719 0.474506 68.7762 0.350488C69.2103 0.350488 69.6443 0.288479 70.0784 0.288479C72.0627 0.22647 74.047 0.598524 75.7832 1.59067C76.3413 1.90071 76.8994 2.27276 77.3335 2.70683C79.4418 4.44308 80.5579 6.92343 81.9221 9.21776C88.6191 20.8134 95.254 32.3471 101.951 43.9428C102.819 45.493 103.873 47.0432 104.431 48.7795C105.548 52.314 104.865 56.4065 102.571 59.383C101.021 61.4913 98.7265 62.8555 96.3082 63.7856H83.0383C81.116 63.7856 79.5038 62.3594 79.1937 60.4371V60.3751C78.8837 58.0188 80.6819 55.9725 83.0383 55.9725C86.5108 55.9725 89.9833 55.9725 93.4558 55.9725C96.0601 55.9725 97.8584 52.624 96.3082 50.5157C88.4951 37.0598 80.7439 23.5418 72.9308 10.0859C72.0007 8.22562 69.4583 7.54352 67.7221 8.65968C66.4819 9.58982 65.8618 11.078 65.0557 12.4422C62.9474 16.3488 60.5911 20.5034 58.1727 24.596C57.8007 25.1541 57.6146 25.8362 58.0487 26.3942C61.8932 32.9672 65.6758 39.6021 69.5203 46.1751C71.0706 48.8415 71.7527 52.1279 70.8225 55.1664C69.8304 59.445 66.2339 62.9175 61.8932 63.7236H44.0967C40.9342 63.1655 38.1438 61.1192 36.5316 58.3908C35.5395 56.7166 34.9814 54.8563 34.7953 52.934C34.6093 50.5157 35.4154 48.0974 36.5936 45.9891C39.8801 40.2842 43.1665 34.6414 46.453 28.9366C47.0731 27.8824 47.7552 26.8903 48.2513 25.7121C48.1893 25.1541 47.8172 24.658 47.5692 24.1619C44.7168 19.3872 42.0504 14.4885 39.136 9.71383C38.0818 7.72955 35.1054 7.4195 33.5552 9.03174C32.501 10.2099 31.8809 11.6981 31.0748 13.0003C24.2538 24.782 17.4949 36.5637 10.6739 48.2834C9.99178 49.5856 8.99963 50.7637 8.87562 52.314C8.93763 53.8022 9.92977 55.2904 11.356 55.7865C12.3481 56.0345 13.3403 55.9725 14.3324 55.9725C17.1848 55.9105 19.9752 55.9725 22.8276 55.9725C25.184 55.9725 26.9822 58.0188 26.6102 60.3131V60.4371C26.3621 62.2974 24.7499 63.7236 22.8276 63.7236H9.55772C7.20138 62.8555 4.96906 61.5533 3.41883 59.507C1.93062 57.5847 1.1245 55.2284 0.938477 52.81V52.0659C1.06249 50.2057 1.43455 48.2834 2.36468 46.6711C10.2398 33.0292 18.1149 19.3872 25.9901 5.74526ZM52.7779 33.9593C49.5535 39.4781 46.391 45.0589 43.1665 50.5777C42.1744 52.1899 42.9185 54.4843 44.4687 55.4144C45.3989 56.0345 46.515 55.9105 47.5692 55.9105C51.5998 55.8485 55.6303 55.9105 59.6609 55.9105C62.2033 55.9725 64.0635 52.81 62.6994 50.5777C59.5369 45.0589 56.3124 39.4781 53.088 33.9593C53.026 33.9593 52.964 33.9593 52.7779 33.9593Z" fill="#006AFF"/>
<path d="M142.649 5.49023C143.777 5.49023 144.679 5.60303 145.581 5.71582C146.371 5.82862 147.048 6.16701 147.725 6.61819C148.288 7.06937 148.852 7.63334 149.304 8.31011C149.755 8.98688 150.319 10.002 150.77 11.2428L166.561 47.45C166.787 47.9012 167.125 48.1268 167.576 48.1268H168.479C168.93 48.1268 169.381 47.9012 169.494 47.45L185.285 11.2428C185.736 10.002 186.3 9.09968 186.752 8.31011C187.203 7.63334 187.767 6.95657 188.331 6.61819C188.895 6.16701 189.684 5.94141 190.361 5.71582C191.038 5.49023 192.053 5.49023 193.181 5.49023H201.302C203.896 5.49023 205.701 6.05421 206.604 7.29495C207.506 8.42291 207.957 10.4532 207.957 13.3859V56.6992C207.957 57.8272 207.393 58.3911 206.265 58.3911H198.708C197.58 58.3911 197.016 57.8272 197.016 56.6992V17.3337C197.016 16.8825 196.79 16.5442 196.452 16.5442H195.775C195.324 16.5442 194.986 16.7697 194.76 17.1081L179.42 50.9467C178.856 52.3002 178.179 53.4282 177.615 54.3305C176.938 55.2329 176.262 56.0224 175.585 56.5864C174.795 57.1504 174.006 57.6016 173.103 57.8272C172.201 58.0528 171.073 58.1656 169.832 58.1656H166.223C164.982 58.1656 163.854 58.0528 162.952 57.8272C162.049 57.6016 161.147 57.1504 160.47 56.5864C159.681 56.0224 159.004 55.2329 158.44 54.3305C157.763 53.4282 157.199 52.3002 156.635 50.9467L141.295 17.1081C141.182 16.6569 140.844 16.5442 140.28 16.5442H139.603C139.152 16.5442 139.039 16.7697 139.039 17.3337V56.6992C139.039 57.8272 138.475 58.3911 137.347 58.3911H129.564C128.437 58.3911 127.873 57.8272 127.873 56.6992V13.3859C127.873 10.566 128.324 8.5357 129.226 7.29495C130.128 6.167 131.933 5.49023 134.64 5.49023H142.649Z" fill="white"/>
<path d="M256.572 16.8809C259.166 16.8809 261.309 17.1065 263.001 17.5576C264.693 18.0088 266.046 18.6856 267.062 19.7007C268.077 20.7159 268.753 21.9566 269.092 23.5358C269.543 25.1149 269.656 27.0324 269.656 29.2883V36.5072C269.656 38.0863 269.317 39.2143 268.641 39.8911C267.964 40.5678 266.836 40.7934 265.37 40.7934H227.019V42.5981C227.019 44.9668 227.583 46.6588 228.711 47.6739C229.839 48.6891 232.095 49.2531 235.366 49.2531H266.949C267.851 49.2531 268.302 49.7042 268.302 50.6066V56.9231C268.302 57.8255 267.851 58.2767 266.949 58.2767H234.238C230.854 58.2767 227.922 58.0511 225.666 57.4871C223.41 56.9231 221.492 56.0208 220.139 54.78C218.785 53.5393 217.77 51.9601 217.093 50.0426C216.416 48.1251 216.191 45.7564 216.191 43.0493V32.221C216.191 29.5139 216.529 27.1452 217.093 25.2277C217.657 23.3102 218.672 21.731 220.139 20.4903C221.492 19.2496 223.41 18.3472 225.666 17.7832C227.922 17.2192 230.854 16.8809 234.238 16.8809H256.572ZM227.132 34.0257H257.812C258.715 34.0257 259.053 33.5745 259.053 32.785V29.6267C259.053 28.0476 258.715 26.9196 258.038 26.3556C257.361 25.6789 256.12 25.3405 254.428 25.3405H235.366C232.095 25.3405 229.839 25.9045 228.711 26.9196C227.583 27.9348 227.019 29.6267 227.019 32.1082V34.0257H227.132Z" fill="white"/>
<path d="M282.966 16.8874V6.96146C282.966 5.83351 283.53 5.26953 284.658 5.26953H292.216C293.344 5.26953 293.908 5.83351 293.908 6.96146V16.8874H307.217C308.12 16.8874 308.571 17.3386 308.571 18.241V24.4447C308.571 25.3471 308.12 25.7982 307.217 25.7982H293.908V43.2815C293.908 45.4246 294.359 46.8909 295.148 47.9061C296.051 48.9212 297.743 49.3724 300.224 49.3724H307.556C308.458 49.3724 308.909 49.8236 308.909 50.726V56.9297C308.909 57.8321 308.458 58.2832 307.556 58.2832H298.419C295.374 58.2832 292.892 58.0576 290.862 57.4937C288.945 56.9297 287.253 56.0273 286.125 54.8994C284.884 53.6586 284.094 52.0795 283.643 50.2748C283.192 48.3573 282.966 46.1014 282.966 43.3943V25.7982H275.748C274.845 25.7982 274.394 25.3471 274.394 24.4447V18.241C274.394 17.3386 274.845 16.8874 275.748 16.8874H282.966Z" fill="white"/>
<path d="M348.726 16.8809C352.11 16.8809 354.93 17.2192 357.298 17.7832C359.667 18.3472 361.472 19.2496 362.825 20.4903C364.179 21.7311 365.194 23.3102 365.871 25.2277C366.435 27.1452 366.773 29.5139 366.773 32.221V52.2985C366.773 53.5393 366.66 54.5544 366.547 55.2312C366.322 56.0208 366.096 56.5847 365.645 57.0359C365.194 57.4871 364.63 57.8255 363.953 57.9383C363.276 58.1639 362.374 58.1639 361.246 58.1639H325.152C322.896 58.1639 321.091 57.9383 319.625 57.4871C318.158 57.0359 316.918 56.4719 316.015 55.5696C315.113 54.6672 314.436 53.6521 314.098 52.2985C313.759 50.945 313.534 49.3659 313.534 47.4483V43.8389C313.534 42.2598 313.759 40.9062 314.098 39.6655C314.436 38.4247 315.113 37.4096 316.015 36.5072C316.918 35.6049 318.158 35.0409 319.625 34.5897C321.091 34.1385 323.009 33.9129 325.152 33.9129H356.057V32.4466C356.057 31.2058 355.945 30.1907 355.719 29.4011C355.494 28.4988 355.042 27.822 354.478 27.3708C353.914 26.8068 353.012 26.4684 351.997 26.2429C350.982 26.0173 349.515 25.9045 347.936 25.9045H316.241C315.338 25.9045 314.887 25.4533 314.887 24.5509V18.2344C314.887 17.332 315.338 16.8809 316.241 16.8809H348.726ZM353.689 50.0426C354.478 50.0426 355.042 49.817 355.381 49.4786C355.719 49.1403 355.832 48.4635 355.832 47.4483V40.7934H328.084C326.505 40.7934 325.377 41.1318 324.813 41.6958C324.136 42.3726 323.911 43.2749 323.911 44.4029V45.982C323.911 47.3355 324.249 48.3507 324.813 48.9147C325.49 49.5914 326.505 49.817 328.084 49.817H353.689V50.0426Z" fill="white"/>
<path d="M429.148 5.4917C430.275 5.4917 430.839 6.05568 430.839 7.18363V14.4025C430.839 15.5305 430.275 16.0944 429.148 16.0944H396.211C394.294 16.0944 392.602 16.2072 391.361 16.5456C390.12 16.884 388.992 17.448 388.316 18.2375C387.526 19.0271 386.962 20.0423 386.737 21.3958C386.398 22.7494 386.285 24.3285 386.285 26.3588V27.8251H428.922C430.05 27.8251 430.614 28.3891 430.614 29.5171V35.4952C430.614 36.6232 430.05 37.1871 428.922 37.1871H386.285V56.8135C386.285 57.9414 385.721 58.5054 384.593 58.5054H376.359C375.231 58.5054 374.667 57.9414 374.667 56.8135V25.4564C374.667 21.847 375.006 18.8015 375.795 16.2072C376.585 13.7257 377.826 11.6954 379.518 10.0035C381.21 8.31158 383.353 7.29642 386.06 6.50686C388.767 5.83009 392.038 5.37891 395.873 5.37891H429.148V5.4917Z" fill="white"/>
<path d="M447.308 1.6582C448.436 1.6582 449 2.22218 449 3.35013V10.569C449 11.697 448.436 12.2609 447.308 12.2609H439.863C438.735 12.2609 438.171 11.697 438.171 10.569V3.35013C438.171 2.22218 438.735 1.6582 439.863 1.6582H447.308ZM447.308 16.8855C448.436 16.8855 449 17.4495 449 18.5775V56.5894C449 57.7174 448.436 58.2814 447.308 58.2814H439.863C438.735 58.2814 438.171 57.7174 438.171 56.5894V18.6903C438.171 17.5623 438.735 16.9983 439.863 16.9983H447.308V16.8855Z" fill="white"/>
</svg>
